<svg width="29" height="29" viewBox="0 0 29 29" fill="none" xmlns="http://www.w3.org/2000/svg">
<path d="M12.4072 27.0469C13.7897 27.2766 15.2004 27.2775 16.5831 27.0496M12.4072 27.0469C9.43787 26.5512 6.73919 25.0183 4.79375 22.7209C2.8483 20.4235 1.78085 17.5104 1.78125 14.5C1.78175 12.0736 2.47629 9.69799 3.78291 7.65347C5.08953 5.60895 6.95371 3.98085 9.15547 2.96126C11.3572 1.94167 13.8047 1.57316 16.2091 1.8992C18.6134 2.22524 20.8744 3.23224 22.7251 4.80135C24.5758 6.37047 25.9391 8.43624 26.6541 10.7549C27.369 13.0735 27.4058 15.5483 26.7601 17.8872C26.1145 20.2261 24.8132 22.3315 23.01 23.955C21.2067 25.5784 18.9767 26.6522 16.5831 27.0496M12.4072 27.0469L12.4059 20.165H9.7975C9.5787 20.165 9.36885 20.0781 9.21414 19.9233C9.05942 19.7686 8.9725 19.5588 8.9725 19.34V16.8127C8.9725 16.5939 9.05942 16.3841 9.21414 16.2294C9.36885 16.0746 9.5787 15.9877 9.7975 15.9877H12.4059V11.6812C12.4059 10.5872 12.8405 9.538 13.6141 8.76441C14.3876 7.99082 15.4369 7.55623 16.5309 7.55623H19.0196C19.3843 7.55623 19.734 7.70109 19.9919 7.95895C20.2498 8.21682 20.3946 8.56655 20.3946 8.93123V10.3612C20.3946 10.7259 20.2498 11.0756 19.9919 11.3335C19.734 11.5914 19.3843 11.7362 19.0196 11.7362H17.9581C17.5935 11.7362 17.2437 11.8811 16.9859 12.139C16.728 12.3968 16.5831 12.7466 16.5831 13.1112V15.9877H19.7415C19.8612 15.9877 19.9796 16.0138 20.0882 16.0641C20.1969 16.1144 20.2933 16.1878 20.3708 16.2791C20.4482 16.3704 20.5049 16.4775 20.5368 16.5929C20.5687 16.7084 20.5751 16.8293 20.5555 16.9475L20.2117 19.0155C20.1584 19.3365 19.9928 19.6283 19.7446 19.8387C19.4963 20.0492 19.1815 20.1648 18.856 20.165H16.5831V27.0496" stroke="white" stroke-width="2.0625" stroke-linecap="round"/>
</svg>
