<svg width="29" height="29" viewBox="0 0 29 29" fill="none" xmlns="http://www.w3.org/2000/svg">
<path d="M21.8425 5.5075C21.5162 5.5075 21.1971 5.60427 20.9258 5.78558C20.6545 5.96688 20.443 6.22457 20.3181 6.52607C20.1932 6.82757 20.1605 7.15933 20.2242 7.4794C20.2879 7.79947 20.445 8.09347 20.6758 8.32423C20.9065 8.55498 21.2005 8.71213 21.5206 8.7758C21.8407 8.83946 22.1724 8.80679 22.4739 8.6819C22.7754 8.55702 23.0331 8.34553 23.2144 8.07419C23.3957 7.80285 23.4925 7.48384 23.4925 7.1575C23.4925 6.71989 23.3187 6.30021 23.0092 5.99077C22.6998 5.68134 22.2801 5.5075 21.8425 5.5075ZM28.1675 8.835C28.1405 7.69419 27.9268 6.5655 27.535 5.49375C27.187 4.576 26.6426 3.74538 25.94 3.06C25.2591 2.35521 24.4269 1.81449 23.5062 1.47875C22.4374 1.07472 21.3074 0.856164 20.165 0.8325C18.7075 0.75 18.24 0.75 14.5 0.75C10.76 0.75 10.2925 0.75 8.835 0.8325C7.69258 0.856164 6.5626 1.07472 5.49375 1.47875C4.57522 1.81872 3.74387 2.35886 3.06 3.06C2.35521 3.74087 1.81449 4.5731 1.47875 5.49375C1.07472 6.5626 0.856164 7.69258 0.8325 8.835C0.75 10.2925 0.75 10.76 0.75 14.5C0.75 18.24 0.75 18.7075 0.8325 20.165C0.856164 21.3074 1.07472 22.4374 1.47875 23.5062C1.81449 24.4269 2.35521 25.2591 3.06 25.94C3.74387 26.6411 4.57522 27.1813 5.49375 27.5212C6.5626 27.9253 7.69258 28.1438 8.835 28.1675C10.2925 28.25 10.76 28.25 14.5 28.25C18.24 28.25 18.7075 28.25 20.165 28.1675C21.3074 28.1438 22.4374 27.9253 23.5062 27.5212C24.4269 27.1855 25.2591 26.6448 25.94 25.94C26.6443 25.256 27.189 24.425 27.535 23.5062C27.9268 22.4345 28.1405 21.3058 28.1675 20.165C28.1675 18.7075 28.25 18.24 28.25 14.5C28.25 10.76 28.25 10.2925 28.1675 8.835ZM25.6925 20C25.6828 20.8728 25.5247 21.7377 25.225 22.5575C25.0055 23.1559 24.6528 23.6966 24.1937 24.1388C23.7475 24.5929 23.208 24.9447 22.6125 25.17C21.7927 25.4697 20.9278 25.6278 20.055 25.6375C18.68 25.7063 18.1712 25.72 14.555 25.72C10.9387 25.72 10.43 25.72 9.055 25.6375C8.14867 25.6553 7.24612 25.5157 6.3875 25.225C5.81851 24.9876 5.30387 24.6367 4.875 24.1937C4.41862 23.752 4.07041 23.2109 3.8575 22.6125C3.52069 21.7812 3.33445 20.8966 3.3075 20C3.3075 18.625 3.225 18.1163 3.225 14.5C3.225 10.8837 3.225 10.375 3.3075 9C3.31251 8.10759 3.47544 7.22312 3.78875 6.3875C4.03081 5.80713 4.40236 5.28978 4.875 4.875C5.29152 4.40089 5.80812 4.02518 6.3875 3.775C7.22542 3.47178 8.10892 3.31368 9 3.3075C10.375 3.3075 10.8837 3.225 14.5 3.225C18.1163 3.225 18.625 3.225 20 3.3075C20.8728 3.31724 21.7377 3.47533 22.5575 3.775C23.1823 4.0069 23.7432 4.38391 24.1937 4.875C24.643 5.29853 24.9948 5.8146 25.225 6.3875C25.5309 7.22471 25.689 8.10867 25.6925 9C25.7612 10.375 25.775 10.8837 25.775 14.5C25.775 18.1163 25.7612 18.625 25.6925 20ZM14.5 7.44625C13.1055 7.44897 11.7431 7.86497 10.5849 8.6417C9.42673 9.41843 8.52477 10.521 7.993 11.8102C7.46122 13.0993 7.3235 14.5171 7.59722 15.8845C7.87094 17.2519 8.54382 18.5075 9.53085 19.4926C10.5179 20.4777 11.7748 21.1481 13.1427 21.4192C14.5106 21.6903 15.9282 21.5498 17.2163 21.0155C18.5044 20.4812 19.6052 19.5771 20.3797 18.4174C21.1541 17.2577 21.5675 15.8945 21.5675 14.5C21.5693 13.572 21.3877 12.6528 21.033 11.7953C20.6783 10.9378 20.1575 10.1589 19.5007 9.50332C18.8439 8.84778 18.0639 8.32856 17.2057 7.97553C16.3475 7.6225 15.428 7.44262 14.5 7.44625ZM14.5 19.0788C13.5944 19.0788 12.7092 18.8102 11.9562 18.3071C11.2032 17.804 10.6163 17.0889 10.2698 16.2522C9.92323 15.4156 9.83256 14.4949 10.0092 13.6067C10.1859 12.7185 10.622 11.9027 11.2623 11.2623C11.9027 10.622 12.7185 10.1859 13.6067 10.0092C14.4949 9.83256 15.4156 9.92323 16.2522 10.2698C17.0889 10.6163 17.804 11.2032 18.3071 11.9562C18.8102 12.7092 19.0788 13.5944 19.0788 14.5C19.0788 15.1013 18.9603 15.6967 18.7302 16.2522C18.5001 16.8077 18.1628 17.3125 17.7377 17.7377C17.3125 18.1628 16.8077 18.5001 16.2522 18.7302C15.6967 18.9603 15.1013 19.0788 14.5 19.0788Z" fill="white"/>
</svg>
