<svg width="26" height="29" viewBox="0 0 26 29" fill="none" xmlns="http://www.w3.org/2000/svg">
<path d="M12.1248 0.75V9.56925C10.2209 9.21588 8.25428 9.45795 6.49286 10.2625C4.73144 11.067 3.26081 12.3949 2.28125 14.0654C1.30169 15.7358 0.860812 17.6676 1.01865 19.5976C1.17649 21.5276 1.92538 23.362 3.16333 24.8511C4.40128 26.3402 6.06812 27.4115 7.93685 27.9192C9.80558 28.4268 11.7854 28.3462 13.6066 27.6881C15.4278 27.0301 17.002 25.8267 18.1147 24.2419C19.2274 22.657 19.8245 20.7677 19.8248 18.8312V13.6942C21.3029 14.3229 22.8936 14.6439 24.4998 14.6375H25.8748V6.9375H24.4998C21.8832 6.9375 19.8248 4.82413 19.8248 2.125V0.75H12.1248ZM14.8748 3.5H17.1958C17.7376 6.5525 20.0558 8.9945 23.1248 9.56375V11.7885C21.6976 11.5795 20.4092 11.0432 19.2157 10.2444L17.0748 8.81162V18.8312C17.0747 20.1648 16.6747 21.4677 15.9266 22.5717C15.1785 23.6757 14.1166 24.53 12.878 25.0243C11.6394 25.5186 10.2811 25.6303 8.97844 25.3448C7.67578 25.0593 6.48864 24.3898 5.57032 23.4228C4.65201 22.4558 4.04472 21.2356 3.82688 19.92C3.60905 18.6043 3.79067 17.2535 4.34829 16.0421C4.90592 14.8308 5.81393 13.8144 6.95506 13.1243C8.09618 12.4341 9.41801 12.102 10.7498 12.1707V14.3762C9.85396 14.3071 8.95808 14.5097 8.17908 14.9574C7.40009 15.4052 6.77417 16.0774 6.38301 16.8863C5.99184 17.6952 5.85361 18.6032 5.98634 19.4919C6.11907 20.3806 6.51661 21.2086 7.12707 21.8679C7.73753 22.5272 8.53255 22.9871 9.40839 23.1877C10.2842 23.3883 11.2002 23.3202 12.0367 22.9924C12.8733 22.6645 13.5916 22.092 14.0979 21.3497C14.6042 20.6074 14.8749 19.7298 14.8748 18.8312V3.5ZM8.68731 18.8312C8.68731 18.3754 8.86839 17.9382 9.19072 17.6159C9.51305 17.2936 9.95022 17.1125 10.4061 17.1125C10.8619 17.1125 11.2991 17.2936 11.6214 17.6159C11.9437 17.9382 12.1248 18.3754 12.1248 18.8312C12.1248 19.2871 11.9437 19.7243 11.6214 20.0466C11.2991 20.3689 10.8619 20.55 10.4061 20.55C9.95022 20.55 9.51305 20.3689 9.19072 20.0466C8.86839 19.7243 8.68731 19.2871 8.68731 18.8312Z" fill="white"/>
</svg>
