<svg width="168" height="168" viewBox="0 0 168 168" fill="none" xmlns="http://www.w3.org/2000/svg">
<ellipse cx="84" cy="84" rx="71" ry="70" fill="#D9D9D9"/>
<g filter="url(#filter0_d_20_86)">
<path d="M84 14C45.339 14 14 45.339 14 84C14 122.661 45.339 154 84 154C122.661 154 154 122.661 154 84C154 45.339 122.661 14 84 14ZM77 112H63V56H77V112ZM105 112H91V56H105V112Z" fill="#0088FF"/>
<path d="M84 14.5C122.385 14.5 153.5 45.6151 153.5 84C153.5 122.385 122.385 153.5 84 153.5C45.6151 153.5 14.5 122.385 14.5 84C14.5 45.6151 45.6151 14.5 84 14.5ZM62.5 112.5H77.5V55.5H62.5V112.5ZM90.5 112.5H105.5V55.5H90.5V112.5Z" stroke="#1AC4D4"/>
</g>
<defs>
<filter id="filter0_d_20_86" x="14" y="14" width="148" height="148" filterUnits="userSpaceOnUse" color-interpolation-filters="sRGB">
<feFlood flood-opacity="0" result="BackgroundImageFix"/>
<feColorMatrix in="SourceAlpha" type="matrix" values="0 0 0 0 0 0 0 0 0 0 0 0 0 0 0 0 0 0 127 0" result="hardAlpha"/>
<feOffset dx="4" dy="4"/>
<feGaussianBlur stdDeviation="2"/>
<feComposite in2="hardAlpha" operator="out"/>
<feColorMatrix type="matrix" values="0 0 0 0 0 0 0 0 0 0 0 0 0 0 0 0 0 0 0.25 0"/>
<feBlend mode="normal" in2="BackgroundImageFix" result="effect1_dropShadow_20_86"/>
<feBlend mode="normal" in="SourceGraphic" in2="effect1_dropShadow_20_86" result="shape"/>
</filter>
</defs>
</svg>
