<svg width="42" height="42" viewBox="0 0 42 42" fill="none" xmlns="http://www.w3.org/2000/svg">
<path fill-rule="evenodd" clip-rule="evenodd" d="M29.6975 12.1975C29.9436 11.9517 30.2772 11.8137 30.625 11.8137C30.9729 11.8137 31.3064 11.9517 31.5525 12.1975L31.556 12.201L31.5613 12.2045L31.5735 12.2168L31.6085 12.2518L31.717 12.3725C31.8045 12.4723 31.927 12.614 32.0688 12.7943C33.6857 14.896 34.5625 17.4733 34.5625 20.125C34.5625 22.7767 33.6857 25.3541 32.0688 27.4558C31.9222 27.6428 31.7681 27.8238 31.6068 27.9983L31.5718 28.0333L31.5613 28.0455L31.556 28.049L31.5543 28.0508L30.6618 27.1618L31.5543 28.0543C31.3081 28.3005 30.9741 28.4388 30.6259 28.4388C30.2777 28.4388 29.9438 28.3005 29.6975 28.0543C29.4513 27.808 29.313 27.4741 29.313 27.1259C29.313 26.7777 29.4513 26.4437 29.6975 26.1975L29.6958 26.1993L29.6923 26.201L29.701 26.1923L29.7588 26.1293C29.8148 26.0686 29.8959 25.9712 30.002 25.837C31.1091 24.3917 31.7726 22.656 31.9118 20.8407C32.051 19.0255 31.6599 17.2089 30.786 15.6118C30.5579 15.1914 30.2957 14.7905 30.002 14.413C29.907 14.2902 29.8066 14.1717 29.701 14.0578L29.6923 14.049C29.4483 13.8024 29.3118 13.4691 29.3128 13.1222C29.3138 12.7752 29.4521 12.4428 29.6975 12.1975Z" fill="white"/>
<path fill-rule="evenodd" clip-rule="evenodd" d="M34.9476 6.94747C35.1937 6.70168 35.5272 6.56363 35.8751 6.56363C36.2229 6.56363 36.5565 6.70168 36.8026 6.94747L36.8078 6.95097L36.8131 6.95622L36.8288 6.97372C36.9047 7.04854 36.9771 7.12679 37.0458 7.20822C37.1841 7.36397 37.3748 7.58972 37.5988 7.88197C38.0486 8.46472 38.6383 9.32222 39.2246 10.437C40.3971 12.6665 41.5626 15.9372 41.5626 20.125C41.5626 24.3127 40.3971 27.5835 39.2246 29.8147C38.7575 30.7118 38.2135 31.5666 37.5988 32.3697C37.357 32.6842 37.1 32.9867 36.8288 33.2762L36.8113 33.2937L36.8078 33.299L36.8043 33.3007L35.8751 32.375L36.8026 33.3025C36.5551 33.5417 36.2237 33.6741 35.8795 33.6713C35.5354 33.6685 35.2061 33.5306 34.9627 33.2874C34.7192 33.0441 34.581 32.715 34.5779 32.3709C34.5747 32.0267 34.7068 31.6951 34.9458 31.4475L34.9703 31.423L35.0806 31.3005C35.1844 31.1861 35.3302 31.0088 35.5181 30.7685C35.8891 30.2855 36.3931 29.5557 36.9006 28.5915C37.9156 26.6665 38.9376 23.8122 38.9376 20.125C38.9376 16.4377 37.9156 13.5835 36.9006 11.6585C36.5021 10.895 36.0396 10.1667 35.5181 9.48147C35.3444 9.25597 35.1617 9.03762 34.9703 8.82697L34.9458 8.80247C34.7 8.55638 34.562 8.22278 34.562 7.87497C34.562 7.52716 34.7018 7.19357 34.9476 6.94747ZM21.0648 5.94297C23.1001 4.60072 25.8126 6.06197 25.8126 8.49972V33.5002C25.8126 35.9397 23.1001 37.3992 21.0648 36.057L10.5648 29.1357C10.4938 29.0884 10.4104 29.0628 10.3251 29.0622H5.25006C3.97371 29.0622 2.74963 28.5552 1.84711 27.6527C0.944591 26.7502 0.437561 25.5261 0.437561 24.2497V17.7502C0.437561 17.1182 0.56204 16.4924 0.803891 15.9086C1.04574 15.3247 1.40023 14.7942 1.84711 14.3473C2.29399 13.9004 2.82452 13.5459 3.4084 13.3041C3.99228 13.0622 4.61807 12.9377 5.25006 12.9377H10.3251C10.4109 12.938 10.4948 12.913 10.5666 12.866L21.0648 5.94297Z" fill="white"/>
</svg>
